<svg height="512" viewBox="0 0 512 512" width="512" xmlns="http://www.w3.org/2000/svg"><g><g><path d="m16 104h480v80h-480z" fill="#ab2300"/><path d="m48 184h416v288h-416z" fill="#ff1d25"/><path d="m224 40h64v64h-64z" fill="#cca400"/><g fill="#ffda44"><path d="m143.07 104c-12.4-19.64-13.31-41.96-.67-54.6 15.62-15.62 46.01-10.55 67.88 11.32 11.23 11.23 13.91 28.82 13.86 43.28"/><path d="m287.336 104c-.05-14.46 2.63-32.05 13.86-43.28 21.87-21.87 52.26-26.94 67.88-11.32 12.64 12.64 11.73 34.96-.67 54.6"/><path d="m192 104h128v80h-128z"/></g><path d="m224 184h64v288h-64z" fill="#cca400"/></g><g><path d="m496 96h-114.51c8.02-19.83 5.74-39.76-6.76-52.26-9.43-9.43-23.13-13.21-38.57-10.63-14.26 2.38-28.5 10.01-40.16 21.5v-14.61a8 8 0 0 0 -8-8h-64a8 8 0 0 0 -8 8v15.131c-.022-.022-.042-.046-.063-.068-11.747-11.746-26.174-19.542-40.625-21.953-15.441-2.575-29.137 1.2-38.569 10.633-12.5 12.5-14.761 32.431-6.749 52.257h-113.994a8 8 0 0 0 -8 8v80a8 8 0 0 0 8 8h24v280a8 8 0 0 0 8 8h416a8 8 0 0 0 8-8v-280h24a8 8 0 0 0 8-8v-80a8 8 0 0 0 -8-8zm-189.15-29.62c9.41-9.41 20.76-15.62 31.95-17.49 10.2-1.7 18.94.49 24.62 6.17 8.84 8.83 8.86 25.24.39 40.94h-67.81v-3.62c1.17-9.4 4.15-19.3 10.85-26zm5.15 109.62h-112v-64h112zm-80-128h48v48h-48zm-83.943 7.057c5.677-5.677 14.421-7.866 24.623-6.165 11.19 1.867 22.534 8.076 31.943 17.485 7.571 7.571 10.382 19.223 11.214 29.623h-68.175c-8.457-15.7-8.44-32.108.395-40.943zm-124.057 56.943h160v64h-160zm32 80h160v272h-160zm176 272v-272h48v272zm224 0h-160v-272h160zm32-288h-160v-64h160z"/><path d="m96 128a8 8 0 0 0 -8-8h-48a8 8 0 0 0 0 16h48a8 8 0 0 0 8-8z"/><path d="m112 136h8a8 8 0 0 0 0-16h-8a8 8 0 0 0 0 16z"/></g></g></svg>